<svg width="48" height="48" viewBox="0 0 48 48" fill="none" xmlns="http://www.w3.org/2000/svg">
<path d="M0 2C0 0.895431 0.895431 0 2 0H46C47.1046 0 48 0.895431 48 2V46C48 47.1046 47.1046 48 46 48H2C0.895431 48 0 47.1046 0 46V2Z" fill="white"/>
<path d="M37.2415 12.5361V6.51985C34.8883 8.51201 32.6278 10.2794 30.4749 11.8526C28.1577 8.40493 24.8224 5.69546 20.8932 4.06885C23.9963 6.69137 26.4071 9.98039 27.9286 13.6668C15.1065 22.4689 6.75879 23.9952 6.75879 23.9952C6.75879 23.9952 15.1065 25.5215 27.9261 34.3329C26.4047 38.0194 23.9938 41.3084 20.8907 43.9309C24.8199 42.3043 28.1553 39.5948 30.4725 36.1472C32.6254 37.7203 34.8858 39.4878 37.2391 41.4799V35.4636C35.9914 33.9888 34.4897 32.7292 32.7989 31.7391C34.7312 26.7489 34.7312 21.2602 32.7989 16.27C34.4913 15.2773 35.9939 14.0145 37.2415 12.5361ZM30.0644 24.0069C30.0651 25.8949 29.8603 27.7779 29.4535 29.6252C26.8534 28.0732 23.4151 26.2051 18.8771 24.0069C23.4126 21.8181 26.8534 19.95 29.4535 18.3886C29.8587 20.2322 30.0626 22.1112 30.0619 23.9952L30.0644 24.0069Z" fill="#1B9F94"/>
</svg>
