<svg width="48" height="48" viewBox="0 0 48 48" fill="none" xmlns="http://www.w3.org/2000/svg">
<path d="M0 2C0 0.895431 0.895431 0 2 0H46C47.1046 0 48 0.895431 48 2V46C48 47.1046 47.1046 48 46 48H2C0.895431 48 0 47.1046 0 46V2Z" fill="white"/>
<path d="M23.3223 5.02218C24.2411 4.95996 24.9831 4.99363 25.7249 5.59198C26.5641 6.26872 42.1706 36.7152 43.4198 39.3178C43.6917 39.8826 43.9318 40.4897 43.9892 41.1188C44.0466 41.7358 43.8744 42.3334 43.4726 42.8094C42.7778 43.6327 41.9999 43.7434 40.9757 43.8115C38.7018 43.9628 30.0642 44.0625 28.1268 43.7325C27.6369 43.6491 27.2428 43.4366 26.8773 43.1039C26.385 42.6556 26.0687 42.0545 26.0474 41.385C26.0205 40.5332 26.2719 39.8897 26.8691 39.2849C28.1055 38.0325 34.924 38.5404 36.9944 38.5473C33.1772 30.6555 28.3218 21.6731 24.2203 13.8562L24.1518 13.7052L23.9401 13.6984C22.9907 15.1284 20.5872 20.0469 19.7026 21.7496L10.9848 38.5517C13.8476 38.5675 17.059 38.36 19.908 38.6636C21.2894 38.8107 22.2324 40.465 21.8495 41.8654C21.6642 42.5551 21.2063 43.14 20.5811 43.4854C19.1869 44.2517 7.92142 43.7887 5.58449 43.6369C4.6025 43.5732 3.60479 41.6652 4.1587 40.3611C5.02786 38.3149 6.06694 36.4149 7.10346 34.4235L12.6971 23.6885L18.5158 12.4546C19.5478 10.4591 20.5822 8.35494 21.7185 6.42261C22.1696 5.65541 22.5374 5.3949 23.3223 5.02218Z" fill="#F42A4D"/>
</svg>
