<svg width="48" height="48" viewBox="0 0 48 48" fill="none" xmlns="http://www.w3.org/2000/svg">
<path d="M0 2C0 0.895431 0.895431 0 2 0H46C47.1046 0 48 0.895431 48 2V46C48 47.1046 47.1046 48 46 48H2C0.895431 48 0 47.1046 0 46V2Z" fill="white"/>
<path d="M15.6106 4.47607H31.7305H32.4872C32.7687 4.55699 33.3273 4.54883 33.6418 4.56887C34.9655 4.65324 36.4233 4.8582 37.6685 5.33041C39.671 6.10955 41.3555 7.53607 42.4535 9.38297C43.4533 11.0594 43.719 12.6181 43.9025 14.5489C43.9297 14.8353 43.9188 15.8261 44 16.0399V21.1109V32.9158C43.9475 33.1061 43.9432 33.3568 43.9367 33.5553C43.8952 34.8178 43.7335 36.1693 43.3945 37.3818C42.7525 39.6793 41.1308 41.7036 39.0888 42.9171C37.5175 43.8656 35.8635 44.1816 34.063 44.3583C33.7413 44.3926 32.829 44.4098 32.5935 44.4761H21.2237H15.4619C15.2795 44.4186 13.8737 44.3546 13.5359 44.3191C10.9967 44.0533 8.88753 43.3083 7.04802 41.4808C5.42354 39.8666 4.57386 37.9838 4.25807 35.7326C4.16377 35.0603 4.08124 34.4221 4.07382 33.7373C4.02666 33.4798 4.07199 33.2096 4 32.8958V16.19C4.0747 15.8403 4.07326 14.9044 4.11277 14.4934C4.30395 12.5047 4.59799 10.9345 5.65574 9.22C6.76665 7.4108 8.45288 6.027 10.4441 5.29046C11.7418 4.82455 13.2579 4.63535 14.6309 4.55921C14.9144 4.54349 15.3189 4.54954 15.5833 4.48323L15.6106 4.47607Z" fill="#F35808"/>
<path d="M23.6932 12.3372C24.0507 12.3219 24.4088 12.3331 24.7646 12.3707C26.5152 12.5669 28.1147 13.4547 29.2072 14.8365C30.3025 16.2187 30.8032 17.9797 30.599 19.7313C30.3852 21.5619 29.4627 23.0945 28.0269 24.2278C29.8357 24.1862 31.8075 24.224 33.6282 24.2242L36.2692 24.2262C36.5627 24.2257 37.8657 24.1808 38.0062 24.2869C38.0805 24.5011 38.0825 25.9948 37.9985 26.2026C37.8177 26.2882 33.653 26.2543 33.1442 26.2544L24.3627 26.2541L15.0772 26.2552L12.025 26.2546C11.7601 26.2545 10.1656 26.2941 10.033 26.1797C9.93918 25.9309 9.97533 24.5911 10.001 24.2564C10.3883 24.2097 10.9597 24.2253 11.3634 24.2254L13.5093 24.2259C15.6586 24.226 17.8715 24.1994 20.0179 24.2299C19.8986 24.1395 19.7828 24.0447 19.6707 23.9456C18.3443 22.7895 17.5305 21.1546 17.4078 19.3994C17.2884 17.6272 17.8868 15.8814 19.0684 14.5552C20.2709 13.1917 21.8912 12.4532 23.6932 12.3372Z" fill="#FEFEFE"/>
<path d="M23.7677 14.3078C26.3292 14.1685 28.5197 16.1299 28.6631 18.6913C28.8065 21.2526 26.8486 23.4463 24.2875 23.5938C21.7206 23.7417 19.5208 21.7784 19.377 19.2112C19.2333 16.6439 21.2002 14.4473 23.7677 14.3078Z" fill="#F35808"/>
<path d="M15.2391 27.9385L16.3484 27.942C16.3608 30.7144 16.3127 33.5386 16.3554 36.3041L14.9885 36.3076C14.9928 36.0624 14.9951 35.8169 14.9956 35.5716C14.4084 36.1139 13.9278 36.3566 13.1132 36.3844C12.4427 36.4071 11.9999 36.2954 11.4062 35.9994C10.4118 35.3996 9.99681 34.5261 9.95059 33.3856C9.87911 31.6219 11.1664 30.2136 12.949 30.2276C13.7854 30.2341 14.3441 30.4244 14.9437 31.0244C14.9404 29.9971 14.9424 28.9697 14.9498 27.9423L15.2391 27.9385Z" fill="#FEFEFE"/>
<path d="M12.8635 31.4696C13.8726 31.3041 14.8257 31.9853 14.9961 32.9936C15.1665 34.0016 14.4902 34.9581 13.4828 35.1336C12.4683 35.3103 11.5036 34.6281 11.3319 33.6128C11.1603 32.5973 11.8473 31.6361 12.8635 31.4696Z" fill="#F35808"/>
<path d="M20.1318 30.237C21.1066 30.1893 21.621 30.3775 22.3491 31.0113C22.3435 30.7733 22.3473 30.5203 22.347 30.281C22.7429 30.311 23.3309 30.2835 23.7527 30.2913L23.7548 36.3208C23.4215 36.289 22.7551 36.306 22.398 36.3038L22.4021 35.5733C22.2705 35.6938 22.1586 35.7855 22.0185 35.8965C21.6152 36.1873 21.2293 36.319 20.7387 36.3745C19.0144 36.5563 17.5465 35.4793 17.3786 33.7213C17.2025 31.8775 18.2157 30.3895 20.1318 30.237Z" fill="#FEFEFE"/>
<path d="M20.2964 31.4642C21.3077 31.3162 22.2488 32.0122 22.4031 33.0227C22.5574 34.0329 21.867 34.9782 20.8576 35.1387C19.8395 35.3004 18.8842 34.6029 18.7286 33.5837C18.573 32.5647 19.2764 31.6137 20.2964 31.4642Z" fill="#F35808"/>
<path d="M34.5524 30.154C36.2891 29.9633 37.8536 31.2123 38.0519 32.9483C38.2501 34.6843 37.0079 36.254 35.2726 36.4595C33.5271 36.6665 31.9459 35.415 31.7464 33.6685C31.5469 31.922 32.8051 30.3463 34.5524 30.154Z" fill="#FEFEFE"/>
<path d="M34.6225 31.4653C35.636 31.3126 36.5815 32.0091 36.736 33.0221C36.8905 34.0351 36.1955 34.9821 35.1828 35.1381C34.1678 35.2946 33.2183 34.5976 33.0635 33.5823C32.9085 32.5668 33.607 31.6186 34.6225 31.4653Z" fill="#F35808"/>
<path d="M27.9651 30.2363C28.0327 30.2283 28.2127 30.2281 28.2883 30.2261C28.2834 30.6668 28.2824 31.1078 28.2854 31.5486C26.8802 31.4113 26.1793 32.1811 26.2124 33.5366C26.2178 33.7556 26.2099 33.9951 26.2095 34.2158C26.2147 34.9126 26.2147 35.6096 26.2093 36.3063C25.7405 36.3138 25.2717 36.3143 24.8029 36.3078L24.8003 35.8413L24.7983 30.2938C25.2515 30.2846 25.6961 30.2893 26.1485 30.2868C26.1515 30.5756 26.156 30.8688 26.1148 31.1546C26.721 30.5106 27.0767 30.3278 27.9651 30.2363Z" fill="#FEFEFE"/>
<path d="M29.2634 30.2867C29.6259 30.303 30.2964 30.2887 30.6737 30.2832C30.6572 30.9385 30.6717 31.6495 30.6714 32.31L30.6699 36.2977C30.5724 36.3302 29.4627 36.3107 29.2514 36.3122L29.2537 32.204C29.2534 31.7457 29.2224 30.7127 29.2634 30.2867Z" fill="#FEFEFE"/>
<path d="M29.7049 27.6309C29.9629 27.6132 30.1804 27.5877 30.4192 27.7077C30.8444 27.9213 31.0014 28.4281 30.7682 28.8443C30.6512 29.052 30.4572 29.2054 30.2282 29.2716C30.0157 29.3022 29.8274 29.3105 29.6217 29.2341C29.4052 29.1544 29.2309 28.9893 29.1394 28.7775C29.0509 28.5786 29.0479 28.3521 29.1309 28.1508C29.2427 27.8798 29.4454 27.7394 29.7049 27.6309Z" fill="#FEFEFE"/>
</svg>
