<svg width="48" height="48" viewBox="0 0 48 48" fill="none" xmlns="http://www.w3.org/2000/svg">
<path d="M0 2C0 0.895431 0.895431 0 2 0H46C47.1046 0 48 0.895431 48 2V46C48 47.1046 47.1046 48 46 48H2C0.895431 48 0 47.1046 0 46V2Z" fill="white"/>
<path d="M29.8732 4.01034C30.9261 3.9063 32.138 4.59786 32.3276 5.61343C32.4952 6.51071 32.4172 8.16461 32.4173 9.09773L32.418 15.6497L32.4177 27.2735L32.4173 31.0468C32.417 32.9092 32.7766 34.9116 30.4107 35.3662C29.8001 35.411 29.3064 35.2995 28.807 34.9443C27.8004 34.2285 27.8618 33.2153 27.8659 32.1097C27.8688 31.3303 27.8661 30.5609 27.866 29.7891L27.8651 22.4889L27.8647 11.6203L27.8649 8.1714C27.865 7.48161 27.8516 6.79828 27.8909 6.10931C27.9556 4.97286 28.7694 4.1753 29.8732 4.01034Z" fill="#00DEA6"/>
<path d="M11.8044 11.2326C13.1705 11.1721 14.1508 12.1573 14.2591 13.492C14.3487 14.5968 14.3135 15.7117 14.3138 16.8211L14.3148 22.9215L14.314 29.5906C14.3138 30.442 14.2966 31.335 14.3122 32.183C14.3425 33.8255 13.9474 35.2171 12.1039 35.4598C10.1907 35.5103 9.50644 34.0875 9.52402 32.3796C9.53335 31.4733 9.51925 30.5391 9.5189 29.6309L9.51758 23.3149L9.51826 17.03C9.51848 16.2134 9.52879 15.3704 9.52038 14.5557C9.50285 12.8599 9.90638 11.4373 11.8044 11.2326Z" fill="#00BFFE"/>
<path d="M19.4634 12.1631C19.6288 11.7979 19.8128 11.5393 20.2067 11.3926C20.4924 11.2861 20.8207 11.2969 21.0949 11.4328C21.356 11.5622 21.5345 11.8091 21.6221 12.0825C21.8126 12.6767 21.7016 18.963 21.7018 20.0746L21.7042 29.3481C21.7046 30.9433 21.7105 32.5458 21.6981 34.1412C21.6961 34.4052 21.6746 34.6539 21.5472 34.8891C21.405 35.1488 21.1636 35.3399 20.8782 35.419C20.1794 35.6167 19.7277 35.2194 19.4628 34.6118C19.3436 34.9253 19.1177 35.2685 18.7986 35.3733C17.868 35.679 17.2588 35.1169 17.2556 34.2226C17.2508 32.883 17.247 31.5894 17.2469 30.2728L17.2471 22.952L17.248 16.0166C17.2481 15.397 17.18 12.3915 17.3419 11.9869C17.445 11.7219 17.6529 11.5112 17.9167 11.4047C18.1972 11.2915 18.5114 11.2946 18.7896 11.4134C19.1729 11.5764 19.3143 11.8049 19.4634 12.1631Z" fill="#00FEFD"/>
<path d="M19.4628 34.6121C19.3436 34.9256 19.1177 35.2688 18.7986 35.3736C17.868 35.6793 17.2588 35.1172 17.2556 34.2229C17.2508 32.8833 17.247 31.5897 17.2469 30.2731L17.2471 22.9523L17.248 16.0169C17.2481 15.3972 17.18 12.3918 17.3419 11.9872C17.445 11.7222 17.6529 11.5115 17.9167 11.405C18.1972 11.2917 18.5114 11.2949 18.7896 11.4137C19.1729 11.5767 19.3143 11.8052 19.4634 12.1633C19.4214 13.7236 19.4485 15.3856 19.4482 16.9518L19.448 25.3763L19.4484 31.4013C19.4483 32.356 19.4104 33.6808 19.4628 34.6121Z" fill="#0101FE"/>
<path d="M24.543 11.3261C25.0948 11.3127 25.5736 11.4417 25.7931 12.0154C25.8463 12.1565 25.875 12.3056 25.8778 12.4564C25.9247 14.1502 25.8804 16.0735 25.8805 17.7816L25.8784 28.4646L25.8807 37.9135C25.881 39.5307 25.8863 41.1482 25.8734 42.7652C25.868 43.4522 25.6132 43.7643 24.9793 43.9921C24.7483 44.0131 24.4981 43.9956 24.2839 43.9013C24.0318 43.7903 23.8046 43.5393 23.7098 43.2821C23.5417 42.8256 23.6365 33.423 23.6365 32.1866L23.6378 19.0842C23.638 16.9352 23.6342 14.7861 23.6367 12.6371C23.6375 11.9138 23.8432 11.5642 24.543 11.3261Z" fill="#B000FE"/>
<path d="M37.1975 11.3239C38.1263 11.2945 38.482 11.8129 38.4807 12.6707C38.4776 14.6363 38.482 16.6024 38.4822 18.568L38.4814 29.0035C38.4811 30.7655 38.4842 32.5275 38.4774 34.2894C38.4748 34.9456 38.1371 35.2925 37.5239 35.4611C36.8056 35.4998 36.2843 35.1131 36.2617 34.3462C36.2433 33.7267 36.2416 33.1066 36.2413 32.485L36.2402 28.1903L36.241 17.7768C36.2414 16.0133 36.2377 14.2496 36.246 12.4861C36.2491 11.8388 36.5909 11.4823 37.1975 11.3239Z" fill="#00BFFE"/>
</svg>
