<svg width="48" height="48" viewBox="0 0 48 48" fill="none" xmlns="http://www.w3.org/2000/svg">
<path d="M0 2C0 0.895431 0.895431 0 2 0H46C47.1046 0 48 0.895431 48 2V46C48 47.1046 47.1046 48 46 48H2C0.895431 48 0 47.1046 0 46V2Z" fill="white"/>
<path fill-rule="evenodd" clip-rule="evenodd" d="M40.7667 20.4103C40.2682 20.4103 39.8604 19.9487 39.8604 19.3846C39.8604 18.8205 40.2682 18.359 40.7667 18.359C41.2652 18.359 41.673 18.8205 41.673 19.3846C41.673 19.9487 41.2652 20.4103 40.7667 20.4103ZM36.2351 39.8974C35.2382 39.8974 34.4225 38.9744 34.4225 37.8462C34.4225 36.7179 35.2382 35.7949 36.2351 35.7949C37.2321 35.7949 38.0478 36.7179 38.0478 37.8462C38.0478 38.9744 37.2321 39.8974 36.2351 39.8974ZM36.2351 30.6667C35.2382 30.6667 34.4225 29.7436 34.4225 28.6154C34.4225 27.4872 35.2382 26.5641 36.2351 26.5641C37.2321 26.5641 38.0478 27.4872 38.0478 28.6154C38.0478 29.7436 37.2321 30.6667 36.2351 30.6667ZM36.2351 21.4359C35.2382 21.4359 34.4225 20.5128 34.4225 19.3846C34.4225 18.2564 35.2382 17.3333 36.2351 17.3333C37.2321 17.3333 38.0478 18.2564 38.0478 19.3846C38.0478 20.5128 37.2321 21.4359 36.2351 21.4359ZM36.2351 12.2051C35.2382 12.2051 34.4225 11.2821 34.4225 10.1538C34.4225 9.02564 35.2382 8.10256 36.2351 8.10256C37.2321 8.10256 38.0478 9.02564 38.0478 10.1538C38.0478 11.2821 37.2321 12.2051 36.2351 12.2051ZM28.5314 32.718C26.7641 32.718 25.3593 31.1282 25.3593 29.1282C25.3593 27.1282 26.7641 25.5385 28.5314 25.5385C30.2987 25.5385 31.7035 27.1282 31.7035 29.1282C31.7035 31.1282 30.2987 32.718 28.5314 32.718ZM28.5314 22.4615C26.7641 22.4615 25.3593 20.8718 25.3593 18.8718C25.3593 16.8718 26.7641 15.2821 28.5314 15.2821C30.2987 15.2821 31.7035 16.8718 31.7035 18.8718C31.7035 20.8718 30.2987 22.4615 28.5314 22.4615ZM28.0783 12.2051C27.0813 12.2051 26.2656 11.2821 26.2656 10.1538C26.2656 9.02564 27.0813 8.10256 28.0783 8.10256C29.0752 8.10256 29.8909 9.02564 29.8909 10.1538C29.8909 11.2821 29.0752 12.2051 28.0783 12.2051ZM28.0783 6.05128C27.5798 6.05128 27.172 5.58974 27.172 5.02564C27.172 4.46154 27.5798 4 28.0783 4C28.5767 4 28.9846 4.46154 28.9846 5.02564C28.9846 5.58974 28.5767 6.05128 28.0783 6.05128ZM19.4683 32.718C17.7009 32.718 16.2961 31.1282 16.2961 29.1282C16.2961 27.1282 17.7009 25.5385 19.4683 25.5385C21.2356 25.5385 22.6404 27.1282 22.6404 29.1282C22.6404 31.1282 21.2356 32.718 19.4683 32.718ZM19.4683 22.4615C17.7009 22.4615 16.2961 20.8718 16.2961 18.8718C16.2961 16.8718 17.7009 15.2821 19.4683 15.2821C21.2356 15.2821 22.6404 16.8718 22.6404 18.8718C22.6404 20.8718 21.2356 22.4615 19.4683 22.4615ZM19.9214 12.2051C18.9245 12.2051 18.1088 11.2821 18.1088 10.1538C18.1088 9.02564 18.9245 8.10256 19.9214 8.10256C20.9184 8.10256 21.7341 9.02564 21.7341 10.1538C21.7341 11.2821 20.9184 12.2051 19.9214 12.2051ZM19.9214 6.05128C19.4229 6.05128 19.0151 5.58974 19.0151 5.02564C19.0151 4.46154 19.4229 4 19.9214 4C20.4199 4 20.8277 4.46154 20.8277 5.02564C20.8277 5.58974 20.4199 6.05128 19.9214 6.05128ZM11.7646 12.2051C10.7676 12.2051 9.95193 11.2821 9.95193 10.1538C9.95193 9.02564 10.7676 8.10256 11.7646 8.10256C12.7615 8.10256 13.5772 9.02564 13.5772 10.1538C13.5772 11.2821 12.7615 12.2051 11.7646 12.2051ZM11.7646 17.3333C12.7615 17.3333 13.5772 18.2564 13.5772 19.3846C13.5772 20.5128 12.7615 21.4359 11.7646 21.4359C10.7676 21.4359 9.95193 20.5128 9.95193 19.3846C9.95193 18.2564 10.7676 17.3333 11.7646 17.3333ZM7.23298 29.641C6.7345 29.641 6.32666 29.1795 6.32666 28.6154C6.32666 28.0513 6.7345 27.5897 7.23298 27.5897C7.73145 27.5897 8.13929 28.0513 8.13929 28.6154C8.13929 29.1795 7.73145 29.641 7.23298 29.641ZM7.23298 20.4103C6.7345 20.4103 6.32666 19.9487 6.32666 19.3846C6.32666 18.8205 6.7345 18.359 7.23298 18.359C7.73145 18.359 8.13929 18.8205 8.13929 19.3846C8.13929 19.9487 7.73145 20.4103 7.23298 20.4103ZM11.7646 26.5641C12.7615 26.5641 13.5772 27.4872 13.5772 28.6154C13.5772 29.7436 12.7615 30.6667 11.7646 30.6667C10.7676 30.6667 9.95193 29.7436 9.95193 28.6154C9.95193 27.4872 10.7676 26.5641 11.7646 26.5641ZM11.7646 35.7949C12.7615 35.7949 13.5772 36.7179 13.5772 37.8462C13.5772 38.9744 12.7615 39.8974 11.7646 39.8974C10.7676 39.8974 9.95193 38.9744 9.95193 37.8462C9.95193 36.7179 10.7676 35.7949 11.7646 35.7949ZM19.9214 35.7949C20.9184 35.7949 21.7341 36.7179 21.7341 37.8462C21.7341 38.9744 20.9184 39.8974 19.9214 39.8974C18.9245 39.8974 18.1088 38.9744 18.1088 37.8462C18.1088 36.7179 18.9245 35.7949 19.9214 35.7949ZM19.9214 41.9487C20.4199 41.9487 20.8277 42.4103 20.8277 42.9744C20.8277 43.5385 20.4199 44 19.9214 44C19.4229 44 19.0151 43.5385 19.0151 42.9744C19.0151 42.4103 19.4229 41.9487 19.9214 41.9487ZM28.0783 35.7949C29.0752 35.7949 29.8909 36.7179 29.8909 37.8462C29.8909 38.9744 29.0752 39.8974 28.0783 39.8974C27.0813 39.8974 26.2656 38.9744 26.2656 37.8462C26.2656 36.7179 27.0813 35.7949 28.0783 35.7949ZM28.0783 41.9487C28.5767 41.9487 28.9846 42.4103 28.9846 42.9744C28.9846 43.5385 28.5767 44 28.0783 44C27.5798 44 27.172 43.5385 27.172 42.9744C27.172 42.4103 27.5798 41.9487 28.0783 41.9487ZM40.7667 27.5897C41.2652 27.5897 41.673 28.0513 41.673 28.6154C41.673 29.1795 41.2652 29.641 40.7667 29.641C40.2682 29.641 39.8604 29.1795 39.8604 28.6154C39.8604 28.0513 40.2682 27.5897 40.7667 27.5897Z" fill="#30B0B2"/>
</svg>
