<svg width="48" height="48" viewBox="0 0 48 48" fill="none" xmlns="http://www.w3.org/2000/svg">
<path d="M0 2C0 0.895431 0.895431 0 2 0H46C47.1046 0 48 0.895431 48 2V46C48 47.1046 47.1046 48 46 48H2C0.895431 48 0 47.1046 0 46V2Z" fill="white"/>
<path d="M24.0002 43.9999C25.2138 43.9999 26.1976 43.0426 26.1976 41.8618C26.1976 40.6809 25.2138 39.7236 24.0002 39.7236C22.7866 39.7236 21.8027 40.6809 21.8027 41.8618C21.8027 43.0426 22.7866 43.9999 24.0002 43.9999Z" fill="#FF0000"/>
<path d="M20.2434 40.5233L11.9067 32.4116C8.67534 29.2675 6.89551 25.0879 6.89551 20.6429C6.89551 11.4662 14.5688 4 24.0001 4C33.4314 4 41.1047 11.4662 41.1047 20.6429C41.1047 25.0879 39.3266 29.2658 36.0953 32.4116L31.0504 37.3235V37.3186L27.8528 40.4316L15.7576 28.6629C13.5568 26.5199 12.3445 23.6707 12.3445 20.6429C12.3445 14.3891 17.5728 9.30024 24.0001 9.30024C30.4274 9.30024 35.6575 14.3891 35.6575 20.6429C35.6575 23.6723 34.4451 26.5199 32.2426 28.6629L27.7214 33.0637L25.3405 30.747L29.8616 26.3478C31.4276 24.8241 32.2897 22.799 32.2897 20.6445C32.2897 16.1963 28.5718 12.5787 24.0001 12.5787C19.4284 12.5787 15.7122 16.1963 15.7122 20.6445C15.7122 22.799 16.5743 24.8241 18.1386 26.3478L27.8511 35.7982L33.7783 30.031C36.331 27.5127 37.7353 24.1819 37.7353 20.6445C37.7353 13.275 31.5724 7.27845 23.9984 7.27845C16.4244 7.27845 10.2632 13.2734 10.2632 20.6429C10.2632 24.213 11.6928 27.5701 14.2876 30.0949L22.6244 38.2066L20.2434 40.5233Z" fill="black"/>
</svg>
