<svg width="48" height="48" viewBox="0 0 48 48" fill="none" xmlns="http://www.w3.org/2000/svg">
<path d="M0 2C0 0.895431 0.895431 0 2 0H46C47.1046 0 48 0.895431 48 2V46C48 47.1046 47.1046 48 46 48H2C0.895431 48 0 47.1046 0 46V2Z" fill="white"/>
<path fill-rule="evenodd" clip-rule="evenodd" d="M32.7777 5.87275C33.1743 5.93047 33.8095 5.99987 34.1779 6.08424C34.3908 6.31564 34.7745 6.83996 34.9821 7.10619L41.8022 15.8477C42.2087 16.3687 42.6516 16.9055 43.023 17.4507C43.0551 17.4976 43.0498 18.0167 43.0522 18.1128L43.0872 20.0503L43.2467 27.0182C43.2841 28.2006 43.3109 29.3831 43.3283 30.5659C43.3374 30.9953 43.3659 31.4238 43.3653 31.8533L36.2068 39.0906L34.9403 40.3799C34.286 41.0409 34.3796 40.978 33.4944 41.2828L32.0976 41.766L26.5206 43.7025L26.2916 43.7783C25.4357 43.6491 24.5011 43.5477 23.6351 43.4341L15.7653 42.4058C15.3941 42.3581 14.9215 42.3108 14.5649 42.242L8.84499 35.1899C7.45094 33.4716 6.01611 31.7352 4.6439 30.0038C4.62786 29.7007 4.63775 29.325 4.63807 29.0145L4.63758 16.9956C4.63745 16.7737 4.629 16.4833 4.64828 16.2697C5.14522 15.7741 5.64447 15.2436 6.13794 14.7426L13.0271 7.7319C13.2307 7.52371 13.5531 7.14823 13.7797 7.01041C13.8928 6.94169 14.3389 6.79339 14.4847 6.74107L15.9306 6.22037L21.4546 4.22168L32.7777 5.87275ZM8.93785 34.2283C8.99035 34.3659 10.2016 35.8138 10.358 36.0067L14.9247 41.6386C15.6328 41.7162 16.369 41.8229 17.0785 41.9158L23.9754 42.8171C24.4864 42.8836 25.0799 42.9463 25.5837 43.0286C25.4571 42.772 25.1041 42.2494 24.9371 41.9867L23.6565 39.9725L21.0836 35.9153C20.9821 35.7556 20.8363 35.511 20.7277 35.362L8.93785 34.2283ZM34.1575 34.9298C34.0576 34.931 33.7468 34.9279 33.664 34.943C30.9243 35.0104 28.1364 35.1333 25.3941 35.2303L22.9073 35.3149C22.5677 35.325 21.8177 35.3282 21.511 35.3713C21.8694 35.8856 22.2649 36.5461 22.6044 37.0812L24.6211 40.2589C25.1758 41.1338 25.7405 42.0542 26.311 42.9158L31.94 37.1847C32.671 36.4409 33.4136 35.6539 34.1575 34.9298ZM37.0581 34.1792L35.7755 34.6313C35.0184 34.8981 35.1684 34.842 34.5931 35.4199L32.7286 37.3262L29.5062 40.6055C28.8577 41.2712 28.1826 41.9331 27.5484 42.6105C27.5424 42.6173 27.5443 42.6369 27.5445 42.6445C29.0628 42.1373 30.6041 41.5878 32.118 41.0606L33.277 40.6614C33.3856 40.6241 33.8808 40.4606 33.9519 40.4052C34.2932 40.1396 34.7028 39.6776 35.0074 39.3657L41.7317 32.5616L41.7376 32.5227L37.0581 34.1792ZM34.6383 20.5637C34.5412 20.5666 34.3896 20.5671 34.298 20.5773C34.0288 20.6048 33.7005 20.608 33.4253 20.622L22.2539 21.2667C21.9354 21.2864 21.5716 21.3187 21.2567 21.3192V30.1035C21.2568 31.6303 21.2401 33.1937 21.2596 34.7183C21.3529 34.715 21.4855 34.7143 21.5747 34.7008C22.9627 34.6638 24.3506 34.6166 25.7378 34.5598L31.7777 34.3566C32.7146 34.3269 33.7035 34.2692 34.6383 34.2623V20.5637ZM8.82895 33.5651C9.68417 33.6247 10.6129 33.7325 11.4699 33.815L19.207 34.5603C19.5504 34.5932 20.3105 34.6442 20.6067 34.7038L20.6072 21.3036C19.6231 21.1951 18.5879 21.0431 17.6001 20.9147L11.7718 20.1582C10.8181 20.0344 9.77403 19.877 8.82846 19.7819L8.82895 33.5651ZM42.3589 18.0137C40.9184 18.5352 39.4122 19.0299 37.9604 19.5291L36.2709 20.1106C35.9753 20.2122 35.5859 20.3573 35.2903 20.4378L35.2898 29.5468C35.2898 31.0388 35.317 32.6178 35.2889 34.1038L35.5577 34.0129L41.8037 31.7988C42.0732 31.7034 42.4326 31.5649 42.6978 31.4901C42.6669 28.8056 42.5735 26.0834 42.515 23.3962L42.4357 19.9034C42.4234 19.3299 42.4319 18.5925 42.392 18.0321L42.3589 18.0137ZM5.28809 29.7603C5.54722 30.0553 5.82643 30.4161 6.07668 30.7249L7.43604 32.4022C7.54547 32.5377 8.08538 33.2257 8.17747 33.2987L8.17892 24.0131C8.1789 22.5447 8.15919 21.0248 8.18038 19.5602C7.46836 18.9807 6.77201 18.3727 6.06307 17.79C5.89779 17.6542 5.43957 17.2444 5.28809 17.1536V29.7603ZM26.2503 9.80887C25.8272 10.6849 25.4005 11.7159 25.0037 12.6141L21.9126 19.6059C21.7879 19.8883 21.5833 20.3925 21.439 20.6497C22.1665 20.6348 22.9292 20.5803 23.6565 20.5316C25.4448 20.4117 27.2496 20.3543 29.0356 20.2214C30.7882 20.1393 32.5613 19.9962 34.3121 19.9273L26.8006 10.4774C26.7137 10.3681 26.3174 9.85385 26.2503 9.80887ZM14.0953 7.66384C13.9424 8.08065 13.6628 8.66341 13.4763 9.08057L8.98404 19.1314C9.33864 19.1958 9.77485 19.2391 10.1407 19.286L17.8714 20.2895C18.7656 20.4058 19.7369 20.5111 20.6213 20.6454C20.7164 20.6465 20.6879 20.6599 20.752 20.6103L23.7479 13.8165L25.0042 10.9815C25.2108 10.5156 25.5187 9.87328 25.6931 9.41312C25.2356 9.35134 24.769 9.28321 24.3133 9.20844C20.9204 8.65173 17.4858 8.2253 14.0953 7.66384ZM27.6125 8.99646C27.3383 9.09383 26.9914 9.22812 26.7185 9.30908C27.424 10.2383 28.2249 11.209 28.9554 12.127L32.9192 17.1089C33.6352 18.0084 34.3704 18.9154 35.0749 19.8222C35.241 19.7826 35.5776 19.6547 35.7498 19.5947L37.0527 19.1416L42.1775 17.3816C41.9564 17.1365 41.7 16.791 41.493 16.5259L40.384 15.1044C39.8154 14.3752 33.8965 6.78086 33.8736 6.77413L27.6125 8.99646ZM12.8044 8.88999C12.3103 9.42801 11.7036 10.0208 11.1884 10.5411L5.94638 15.8813C5.77555 16.0558 5.60984 16.2422 5.43443 16.4102C5.80101 16.6689 6.43014 17.2349 6.80741 17.5484C7.27377 17.9452 7.95344 18.476 8.38409 18.8805C8.51206 18.5528 8.68738 18.1833 8.83235 17.859L11.5861 11.6914C11.9953 10.7774 12.4304 9.83862 12.82 8.9177L12.8044 8.88999ZM21.5397 4.89601C20.1079 5.38905 18.6801 5.94227 17.2506 6.44401C16.6024 6.6715 15.8652 6.97052 15.2135 7.16307C17.5416 7.54118 19.909 7.87774 22.2441 8.23121L24.8131 8.62016C25.2291 8.68317 25.6522 8.7493 26.0689 8.81025C26.1504 8.82204 26.2524 8.78055 26.3315 8.7524L31.8846 6.78142C32.1055 6.70302 32.4228 6.5993 32.6333 6.50722C31.7052 6.38032 30.7778 6.24733 29.8514 6.10855L22.6399 5.0584C22.4512 5.03101 21.6967 4.93786 21.5397 4.89601Z" fill="#073251"/>
</svg>
