<svg width="48" height="48" viewBox="0 0 48 48" fill="none" xmlns="http://www.w3.org/2000/svg">
<path d="M0 2C0 0.895431 0.895431 0 2 0H46C47.1046 0 48 0.895431 48 2V46C48 47.1046 47.1046 48 46 48H2C0.895431 48 0 47.1046 0 46V2Z" fill="white"/>
<path d="M27.4341 19.3398C26.1729 17.8036 24.9353 15.5907 28.7983 12.5731C29.5993 11.9444 30.1792 11.0877 30.4573 10.1223C30.7354 9.15695 30.6978 8.13103 30.3497 7.1875C30.0016 6.24398 29.3603 5.42986 28.5153 4.85857C27.6703 4.28729 26.6636 3.9873 25.6355 4.00041C24.6074 4.01352 23.6091 4.33908 22.7797 4.93172C21.9503 5.52436 21.3311 6.35456 21.0084 7.30663C20.6858 8.25871 20.6756 9.28524 20.9795 10.2432C21.2834 11.2011 21.8861 12.0428 22.7037 12.6508C26.6417 15.5679 25.465 17.8128 24.2461 19.3764C24.0287 19.6524 23.8905 19.9798 23.8457 20.325C23.8009 20.6702 23.8511 21.0209 23.9911 21.3409C24.1311 21.661 24.356 21.939 24.6425 22.1464C24.929 22.3538 25.267 22.4831 25.6217 22.521C25.9764 22.559 26.335 22.5042 26.6608 22.3624C26.9867 22.2205 27.2679 21.9967 27.4758 21.7139C27.6837 21.431 27.8106 21.0993 27.8437 20.7529C27.8767 20.4064 27.8146 20.0576 27.6638 19.7422C27.593 19.5984 27.5048 19.4633 27.4012 19.3398H27.4341Z" fill="#F3D68F"/>
<path d="M19.1125 21.205C17.1153 21.4839 14.5321 21.3925 13.8336 16.6329C13.6888 15.6391 13.2294 14.7142 12.5196 13.9873C11.8098 13.2604 10.8849 12.7679 9.87419 12.5784C8.86344 12.3889 7.81724 12.5119 6.88165 12.9303C5.94607 13.3487 5.16781 14.0416 4.65553 14.9122C4.14324 15.7828 3.92252 16.7877 4.02416 17.7866C4.1258 18.7855 4.54474 19.7284 5.22248 20.4839C5.90022 21.2393 6.80294 21.7695 7.80459 22.0004C8.80625 22.2314 9.85684 22.1515 10.8097 21.7719C15.3901 19.9431 16.7731 22.0829 17.5372 23.898C17.6711 24.2189 17.8898 24.4994 18.1712 24.7109C18.4526 24.9224 18.7865 25.0572 19.1388 25.1016C19.4912 25.146 19.8492 25.0984 20.1765 24.9636C20.5038 24.8288 20.7885 24.6118 21.0015 24.3346C21.2146 24.0573 21.3484 23.7299 21.3892 23.3858C21.4301 23.0416 21.3765 22.6931 21.2339 22.3757C21.0914 22.0584 20.865 21.7836 20.578 21.5796C20.2909 21.3755 19.9534 21.2494 19.6 21.2142C19.4384 21.1931 19.2748 21.19 19.1125 21.205Z" fill="#F28E2A"/>
<path d="M18.3719 41.7894C18.3342 41.6543 18.2807 41.5239 18.2125 41.4008C17.3827 39.8691 16.6794 37.7431 20.4019 35.7679C21.3122 35.2609 22.0061 34.4525 22.3577 33.4893C22.7093 32.5261 22.6952 31.4719 22.3181 30.518C21.941 29.564 21.2259 28.7734 20.3023 28.2897C19.3787 27.8059 18.308 27.6609 17.2842 27.881C16.184 28.176 15.2489 28.8849 14.6845 29.852C14.1201 30.8191 13.9726 31.9652 14.2744 33.0384C14.4503 33.7161 14.7894 34.343 15.2636 34.8672C18.1468 38.0357 16.806 39.7868 15.5402 40.9435C15.3068 41.1564 15.1365 41.4268 15.0474 41.7261C14.9583 42.0254 14.9536 42.3427 15.0339 42.6444C15.0794 42.8687 15.1714 43.0817 15.3042 43.2702C15.4369 43.4588 15.6077 43.6189 15.8061 43.7409C16.0045 43.8629 16.2263 43.9442 16.458 43.9797C16.6897 44.0153 16.9263 44.0044 17.1536 43.9478C17.3808 43.8912 17.5938 43.7899 17.7795 43.6503C17.9653 43.5107 18.1199 43.3356 18.2339 43.1357C18.348 42.9358 18.419 42.7154 18.4427 42.4878C18.4664 42.2603 18.4423 42.0304 18.3719 41.8122V41.7894Z" fill="#BEDFCC"/>
<path d="M23.3367 27.8577C23.5212 28.3136 23.8405 28.7058 24.254 28.9845C24.6675 29.2632 25.1566 29.4157 25.6592 29.4228C26.1617 29.4299 26.6551 29.2912 27.0767 29.0244C27.4983 28.7575 27.8291 28.3745 28.0271 27.9239C28.2251 27.4734 28.2814 26.9756 28.1888 26.4939C28.0962 26.0121 27.8589 25.568 27.507 25.218C27.1551 24.8679 26.7046 24.6278 26.2125 24.5279C25.7204 24.4281 25.209 24.4731 24.7432 24.6572C24.1227 24.9012 23.6264 25.3748 23.3629 25.9745C23.0994 26.5742 23.0899 27.2512 23.3367 27.8577Z" fill="#6EB1B4"/>
<path d="M19.4641 14.2234C18.9753 14.0225 18.4364 13.9674 17.9155 14.0652C17.3946 14.163 16.9152 14.4092 16.5378 14.7728C16.1604 15.1363 15.9021 15.6008 15.7955 16.1076C15.6888 16.6143 15.7387 17.1405 15.9387 17.6196C16.1388 18.0987 16.48 18.5092 16.9193 18.7992C17.3586 19.0891 17.8762 19.2455 18.4066 19.2485C18.9371 19.2515 19.4565 19.1011 19.8993 18.8162C20.342 18.5313 20.6882 18.1247 20.894 17.648C21.1685 17.0088 21.1722 16.2895 20.9042 15.6477C20.6362 15.0059 20.1184 14.4938 19.4641 14.2234Z" fill="#284C58"/>
<path d="M13.3693 26.8424C13.7788 26.6795 14.1295 26.4019 14.3773 26.0447C14.625 25.6875 14.7585 25.2667 14.7611 24.8354C14.7636 24.4042 14.635 23.9819 14.3914 23.622C14.1479 23.262 13.8004 22.9805 13.3929 22.8131C12.9854 22.6457 12.5362 22.5999 12.1019 22.6814C11.6677 22.763 11.2681 22.9683 10.9534 23.2713C10.6388 23.5743 10.4234 23.9615 10.3344 24.3839C10.2453 24.8063 10.2867 25.245 10.4533 25.6445C10.5635 25.9104 10.7265 26.1524 10.9329 26.3566C11.1393 26.5608 11.385 26.7233 11.656 26.8346C11.927 26.9459 12.2178 27.0039 12.5119 27.0053C12.8059 27.0066 13.0973 26.9512 13.3693 26.8424Z" fill="#F9ECD1"/>
<path d="M11.8456 33.7279C12.31 33.5472 12.709 33.2362 12.9921 32.8343C13.2752 32.4324 13.4297 31.9577 13.436 31.4701C13.4423 30.9826 13.3002 30.5041 13.0276 30.0954C12.755 29.6866 12.3642 29.3659 11.9047 29.1739C11.4451 28.9818 10.9375 28.927 10.446 29.0164C9.95448 29.1058 9.50122 29.3354 9.14355 29.6761C8.78589 30.0168 8.53991 30.4533 8.43672 30.9304C8.33354 31.4075 8.3778 31.9037 8.5639 32.3563C8.68677 32.6567 8.86918 32.9305 9.10069 33.1621C9.3322 33.3936 9.60826 33.5784 9.91308 33.7058C10.2179 33.8332 10.5455 33.9008 10.8771 33.9045C11.2087 33.9083 11.5378 33.8483 11.8456 33.7279Z" fill="#F3D68F"/>
<path d="M42.4363 15.3486C41.9453 15.047 41.3828 14.8741 40.8032 14.8466C40.2236 14.8192 39.6466 14.9381 39.1279 15.192C38.6093 15.4458 38.1666 15.8259 37.8427 16.2955C37.5189 16.7651 37.3248 17.3082 37.2793 17.8724C37.0121 21.1506 35.2587 21.3198 33.8898 21.2146C33.6471 21.1949 33.4034 21.2384 33.1836 21.3407C32.9639 21.443 32.7759 21.6005 32.6391 21.797C32.5023 21.9935 32.4215 22.2219 32.405 22.4588C32.3885 22.6958 32.4369 22.9328 32.5452 23.1455C32.6536 23.3582 32.8179 23.539 33.0215 23.6694C33.2251 23.7997 33.4605 23.875 33.7037 23.8874C33.9469 23.8998 34.1891 23.8489 34.4055 23.74C34.6219 23.6311 34.8047 23.468 34.9352 23.2675C34.9934 23.1739 35.0406 23.0742 35.0759 22.9703C35.5166 21.7038 36.3651 20.195 39.5625 21.242C40.3432 21.4961 41.1923 21.4628 41.9495 21.1484C42.7068 20.8341 43.32 20.2604 43.6735 19.5355C44.027 18.8107 44.0963 17.9847 43.8684 17.2135C43.6405 16.4422 43.1311 15.7789 42.4363 15.3486Z" fill="#284C58"/>
<path d="M33.3737 19.7286C33.9182 19.5111 34.3843 19.1409 34.7129 18.6649C35.0415 18.1889 35.2178 17.6285 35.2195 17.0547C35.2212 16.4809 35.0483 15.9195 34.7226 15.4416C34.3969 14.9637 33.9331 14.5909 33.3899 14.3702C32.8468 14.1496 32.2487 14.0912 31.6714 14.2024C31.0942 14.3135 30.5638 14.5893 30.1474 14.9946C29.7309 15.4 29.4472 15.9168 29.3322 16.4796C29.2172 17.0423 29.2761 17.6257 29.5013 18.1558C29.8042 18.8625 30.3809 19.4242 31.106 19.7186C31.831 20.0131 32.646 20.0167 33.3737 19.7286Z" fill="#BEDFCC"/>
<path d="M17.0496 10.8402C17.279 10.3121 17.3425 9.72946 17.2322 9.1661C17.1219 8.60274 16.8427 8.08396 16.43 7.6754C16.0173 7.26683 15.4895 6.98686 14.9136 6.8709C14.3376 6.75494 13.7394 6.80822 13.1945 7.02398C12.6496 7.23974 12.1826 7.60829 11.8525 8.08299C11.5225 8.55769 11.3443 9.11721 11.3404 9.69073C11.3365 10.2643 11.5072 10.826 11.8308 11.3049C12.1545 11.7838 12.6165 12.1583 13.1584 12.381C13.8843 12.6767 14.7005 12.6806 15.4294 12.392C16.1582 12.1034 16.7406 11.5457 17.0496 10.8402Z" fill="#BEDFCC"/>
<path d="M36.4589 12.9847C36.8667 12.8202 37.2154 12.5416 37.4612 12.1842C37.707 11.8268 37.8389 11.4064 37.8402 10.976C37.8415 10.5457 37.7123 10.1245 37.4687 9.76565C37.2251 9.40678 36.8781 9.12622 36.4713 8.9593C36.0645 8.79237 35.6162 8.74655 35.1828 8.82759C34.7494 8.90863 34.3503 9.11292 34.0357 9.41473C33.7211 9.71655 33.5051 10.1024 33.4149 10.5237C33.3247 10.945 33.3643 11.3829 33.5288 11.7822C33.6395 12.0494 33.8032 12.2925 34.0106 12.4977C34.218 12.7029 34.465 12.8661 34.7373 12.9779C35.0097 13.0896 35.302 13.1478 35.5974 13.1489C35.8929 13.1501 36.1856 13.0943 36.4589 12.9847Z" fill="#3A7380"/>
</svg>
